<mxfile host="app.diagrams.net" modified="2022-11-06T06:18:40.045Z" agent="5.0 (Windows NT 10.0; Win64; x64) AppleWebKit/537.36 (KHTML, like Gecko) Chrome/107.0.0.0 Safari/537.36 Edg/107.0.1418.26" etag="dvrAY_7VeHV5doB5tNNS" version="20.5.2" type="github">
  <diagram id="8wdQnnvvIOz9vKfe4MHK" name="第 1 页">
    <mxGraphModel dx="948" dy="525" grid="1" gridSize="10" guides="1" tooltips="1" connect="1" arrows="1" fold="1" page="1" pageScale="1" pageWidth="827" pageHeight="1169" math="1" shadow="0">
      <root>
        <mxCell id="0" />
        <mxCell id="1" parent="0" />
        <mxCell id="e7qZqMkSA_Kf9c3aGl6x-2" value="MHA" style="rounded=1;whiteSpace=wrap;html=1;fillColor=#ffe6cc;strokeColor=#d79b00;" parent="1" vertex="1">
          <mxGeometry x="270" y="350" width="100" height="30" as="geometry" />
        </mxCell>
        <mxCell id="e7qZqMkSA_Kf9c3aGl6x-4" value="FNN" style="rounded=1;whiteSpace=wrap;html=1;fillColor=#d5e8d4;strokeColor=#82b366;" parent="1" vertex="1">
          <mxGeometry x="270" y="300" width="100" height="30" as="geometry" />
        </mxCell>
        <mxCell id="e7qZqMkSA_Kf9c3aGl6x-6" value="&lt;font style=&quot;font-size: 13px;&quot;&gt;(64,256)&lt;br&gt;(256,64)&lt;/font&gt;" style="rounded=0;whiteSpace=wrap;html=1;" parent="1" vertex="1">
          <mxGeometry x="470" y="250" width="120" height="60" as="geometry" />
        </mxCell>
        <mxCell id="e7qZqMkSA_Kf9c3aGl6x-7" value="&lt;font style=&quot;font-size: 13px;&quot;&gt;(64,64)×4&lt;/font&gt;" style="rounded=0;whiteSpace=wrap;html=1;" parent="1" vertex="1">
          <mxGeometry x="470" y="335" width="120" height="60" as="geometry" />
        </mxCell>
        <mxCell id="e7qZqMkSA_Kf9c3aGl6x-9" value="" style="endArrow=none;dashed=1;html=1;rounded=0;entryX=0;entryY=0;entryDx=0;entryDy=0;" parent="1" target="e7qZqMkSA_Kf9c3aGl6x-6" edge="1">
          <mxGeometry width="50" height="50" relative="1" as="geometry">
            <mxPoint x="370" y="300" as="sourcePoint" />
            <mxPoint x="420" y="250" as="targetPoint" />
          </mxGeometry>
        </mxCell>
        <mxCell id="e7qZqMkSA_Kf9c3aGl6x-10" value="" style="endArrow=none;dashed=1;html=1;rounded=0;entryX=0;entryY=1;entryDx=0;entryDy=0;" parent="1" target="e7qZqMkSA_Kf9c3aGl6x-6" edge="1">
          <mxGeometry width="50" height="50" relative="1" as="geometry">
            <mxPoint x="370" y="330" as="sourcePoint" />
            <mxPoint x="470" y="270" as="targetPoint" />
          </mxGeometry>
        </mxCell>
        <mxCell id="e7qZqMkSA_Kf9c3aGl6x-12" value="" style="endArrow=none;dashed=1;html=1;rounded=0;fontSize=13;entryX=0;entryY=0;entryDx=0;entryDy=0;" parent="1" target="e7qZqMkSA_Kf9c3aGl6x-7" edge="1">
          <mxGeometry width="50" height="50" relative="1" as="geometry">
            <mxPoint x="370" y="350" as="sourcePoint" />
            <mxPoint x="420" y="300" as="targetPoint" />
          </mxGeometry>
        </mxCell>
        <mxCell id="e7qZqMkSA_Kf9c3aGl6x-14" value="" style="endArrow=none;dashed=1;html=1;rounded=0;fontSize=13;entryX=0;entryY=1;entryDx=0;entryDy=0;exitX=1;exitY=1;exitDx=0;exitDy=0;" parent="1" source="e7qZqMkSA_Kf9c3aGl6x-2" target="e7qZqMkSA_Kf9c3aGl6x-7" edge="1">
          <mxGeometry width="50" height="50" relative="1" as="geometry">
            <mxPoint x="380" y="360" as="sourcePoint" />
            <mxPoint x="479.03999999999996" y="337.02" as="targetPoint" />
          </mxGeometry>
        </mxCell>
        <mxCell id="e7qZqMkSA_Kf9c3aGl6x-17" value="MHA" style="rounded=1;whiteSpace=wrap;html=1;fillColor=#ffe6cc;strokeColor=#d79b00;" parent="1" vertex="1">
          <mxGeometry x="270" y="410" width="100" height="30" as="geometry" />
        </mxCell>
        <mxCell id="e7qZqMkSA_Kf9c3aGl6x-18" value="&lt;font style=&quot;font-size: 13px;&quot;&gt;(64,64)×4&lt;/font&gt;" style="rounded=0;whiteSpace=wrap;html=1;" parent="1" vertex="1">
          <mxGeometry x="470" y="420" width="120" height="60" as="geometry" />
        </mxCell>
        <mxCell id="e7qZqMkSA_Kf9c3aGl6x-23" value="" style="endArrow=none;dashed=1;html=1;rounded=0;fontSize=13;entryX=0;entryY=0;entryDx=0;entryDy=0;exitX=1;exitY=0;exitDx=0;exitDy=0;" parent="1" source="e7qZqMkSA_Kf9c3aGl6x-17" target="e7qZqMkSA_Kf9c3aGl6x-18" edge="1">
          <mxGeometry width="50" height="50" relative="1" as="geometry">
            <mxPoint x="380" y="390" as="sourcePoint" />
            <mxPoint x="480" y="390" as="targetPoint" />
          </mxGeometry>
        </mxCell>
        <mxCell id="e7qZqMkSA_Kf9c3aGl6x-24" value="" style="endArrow=none;dashed=1;html=1;rounded=0;fontSize=13;entryX=0;entryY=1;entryDx=0;entryDy=0;exitX=1;exitY=1;exitDx=0;exitDy=0;" parent="1" source="e7qZqMkSA_Kf9c3aGl6x-17" target="e7qZqMkSA_Kf9c3aGl6x-18" edge="1">
          <mxGeometry width="50" height="50" relative="1" as="geometry">
            <mxPoint x="380" y="390" as="sourcePoint" />
            <mxPoint x="480" y="390" as="targetPoint" />
          </mxGeometry>
        </mxCell>
        <mxCell id="Rmtb3irvOzr1RXj2wSrz-20" style="edgeStyle=orthogonalEdgeStyle;rounded=0;orthogonalLoop=1;jettySize=auto;html=1;startArrow=none;startFill=0;endArrow=blockThin;endFill=1;" parent="1" source="Rmtb3irvOzr1RXj2wSrz-1" edge="1">
          <mxGeometry relative="1" as="geometry">
            <mxPoint x="230" y="720" as="targetPoint" />
          </mxGeometry>
        </mxCell>
        <mxCell id="Rmtb3irvOzr1RXj2wSrz-1" value="FNN" style="rounded=1;whiteSpace=wrap;html=1;fillColor=#d5e8d4;strokeColor=#82b366;" parent="1" vertex="1">
          <mxGeometry x="180" y="800" width="100" height="30" as="geometry" />
        </mxCell>
        <mxCell id="Rmtb3irvOzr1RXj2wSrz-9" value="" style="edgeStyle=orthogonalEdgeStyle;rounded=0;orthogonalLoop=1;jettySize=auto;html=1;" parent="1" source="Rmtb3irvOzr1RXj2wSrz-2" target="Rmtb3irvOzr1RXj2wSrz-1" edge="1">
          <mxGeometry relative="1" as="geometry" />
        </mxCell>
        <mxCell id="Rmtb3irvOzr1RXj2wSrz-2" value="MHA" style="rounded=1;whiteSpace=wrap;html=1;fillColor=#ffe6cc;strokeColor=#d79b00;" parent="1" vertex="1">
          <mxGeometry x="180" y="920" width="100" height="30" as="geometry" />
        </mxCell>
        <mxCell id="Rmtb3irvOzr1RXj2wSrz-3" value="$$X = (X^{t-P+1},...,X^{t})$$" style="text;html=1;align=center;verticalAlign=middle;resizable=0;points=[];autosize=1;strokeColor=none;fillColor=none;" parent="1" vertex="1">
          <mxGeometry x="145" y="1120" width="170" height="30" as="geometry" />
        </mxCell>
        <mxCell id="Rmtb3irvOzr1RXj2wSrz-4" value="" style="endArrow=blockThin;html=1;rounded=0;endFill=1;" parent="1" edge="1">
          <mxGeometry width="50" height="50" relative="1" as="geometry">
            <mxPoint x="230" y="1120" as="sourcePoint" />
            <mxPoint x="229.58" y="1100" as="targetPoint" />
          </mxGeometry>
        </mxCell>
        <mxCell id="Rmtb3irvOzr1RXj2wSrz-7" style="edgeStyle=orthogonalEdgeStyle;rounded=0;orthogonalLoop=1;jettySize=auto;html=1;endArrow=classic;endFill=1;" parent="1" source="Rmtb3irvOzr1RXj2wSrz-6" edge="1">
          <mxGeometry relative="1" as="geometry">
            <mxPoint x="230" y="950" as="targetPoint" />
          </mxGeometry>
        </mxCell>
        <mxCell id="Rmtb3irvOzr1RXj2wSrz-6" value="FC" style="rounded=1;whiteSpace=wrap;html=1;fillColor=#fff2cc;strokeColor=#d6b656;" parent="1" vertex="1">
          <mxGeometry x="180" y="1070" width="100" height="30" as="geometry" />
        </mxCell>
        <mxCell id="Rmtb3irvOzr1RXj2wSrz-10" value="" style="endArrow=classic;html=1;rounded=0;endFill=1;startArrow=classic;startFill=1;" parent="1" edge="1">
          <mxGeometry width="50" height="50" relative="1" as="geometry">
            <mxPoint x="200" y="950" as="sourcePoint" />
            <mxPoint x="260" y="950" as="targetPoint" />
            <Array as="points">
              <mxPoint x="200" y="970" />
              <mxPoint x="260" y="970" />
            </Array>
          </mxGeometry>
        </mxCell>
        <mxCell id="Rmtb3irvOzr1RXj2wSrz-12" value="" style="endArrow=classic;html=1;rounded=0;entryX=0;entryY=0.5;entryDx=0;entryDy=0;" parent="1" target="Rmtb3irvOzr1RXj2wSrz-23" edge="1">
          <mxGeometry width="50" height="50" relative="1" as="geometry">
            <mxPoint x="230" y="980" as="sourcePoint" />
            <mxPoint x="180" y="870" as="targetPoint" />
            <Array as="points">
              <mxPoint x="160" y="980" />
              <mxPoint x="160" y="870" />
            </Array>
          </mxGeometry>
        </mxCell>
        <mxCell id="Rmtb3irvOzr1RXj2wSrz-18" style="edgeStyle=orthogonalEdgeStyle;rounded=0;orthogonalLoop=1;jettySize=auto;html=1;startArrow=none;startFill=0;endArrow=blockThin;endFill=1;" parent="1" edge="1">
          <mxGeometry relative="1" as="geometry">
            <mxPoint x="230" y="1055" as="targetPoint" />
            <mxPoint x="180" y="1055" as="sourcePoint" />
          </mxGeometry>
        </mxCell>
        <mxCell id="Rmtb3irvOzr1RXj2wSrz-14" value="Position Encoding" style="text;html=1;align=center;verticalAlign=middle;resizable=0;points=[];autosize=1;strokeColor=none;fillColor=none;" parent="1" vertex="1">
          <mxGeometry x="70" y="1040" width="120" height="30" as="geometry" />
        </mxCell>
        <mxCell id="Rmtb3irvOzr1RXj2wSrz-19" value="Temporal Embeding" style="rounded=1;whiteSpace=wrap;html=1;fillColor=#dae8fc;strokeColor=#6c8ebf;" parent="1" vertex="1">
          <mxGeometry x="200" y="1005" width="60" height="35" as="geometry" />
        </mxCell>
        <mxCell id="Rmtb3irvOzr1RXj2wSrz-22" value="Dropout" style="rounded=1;whiteSpace=wrap;html=1;fillColor=#e1d5e7;strokeColor=#9673a6;" parent="1" vertex="1">
          <mxGeometry x="200" y="890" width="60" height="25" as="geometry" />
        </mxCell>
        <mxCell id="Rmtb3irvOzr1RXj2wSrz-23" value="Add &amp;amp; Norm" style="rounded=1;whiteSpace=wrap;html=1;fillColor=#e1d5e7;strokeColor=#9673a6;" parent="1" vertex="1">
          <mxGeometry x="190" y="860" width="80" height="20" as="geometry" />
        </mxCell>
        <mxCell id="Rmtb3irvOzr1RXj2wSrz-24" value="Dropout" style="rounded=1;whiteSpace=wrap;html=1;fillColor=#e1d5e7;strokeColor=#9673a6;" parent="1" vertex="1">
          <mxGeometry x="200" y="770" width="60" height="25" as="geometry" />
        </mxCell>
        <mxCell id="Rmtb3irvOzr1RXj2wSrz-25" value="Add &amp;amp; Norm" style="rounded=1;whiteSpace=wrap;html=1;fillColor=#e1d5e7;strokeColor=#9673a6;" parent="1" vertex="1">
          <mxGeometry x="190" y="740" width="80" height="20" as="geometry" />
        </mxCell>
        <mxCell id="Rmtb3irvOzr1RXj2wSrz-27" value="" style="endArrow=classic;html=1;rounded=0;entryX=0;entryY=0.5;entryDx=0;entryDy=0;" parent="1" target="Rmtb3irvOzr1RXj2wSrz-25" edge="1">
          <mxGeometry width="50" height="50" relative="1" as="geometry">
            <mxPoint x="230" y="850" as="sourcePoint" />
            <mxPoint x="190" y="740" as="targetPoint" />
            <Array as="points">
              <mxPoint x="160" y="850" />
              <mxPoint x="160" y="750" />
            </Array>
          </mxGeometry>
        </mxCell>
        <mxCell id="Rmtb3irvOzr1RXj2wSrz-29" style="edgeStyle=orthogonalEdgeStyle;rounded=0;orthogonalLoop=1;jettySize=auto;html=1;startArrow=none;startFill=0;endArrow=classic;endFill=1;" parent="1" source="Rmtb3irvOzr1RXj2wSrz-28" edge="1">
          <mxGeometry relative="1" as="geometry">
            <mxPoint x="230" y="670" as="targetPoint" />
          </mxGeometry>
        </mxCell>
        <mxCell id="hHXNNeR1StJMd4GyVmQN-70" value="" style="edgeStyle=orthogonalEdgeStyle;rounded=0;orthogonalLoop=1;jettySize=auto;html=1;fontSize=20;endArrow=blockThin;endFill=1;" edge="1" parent="1" source="Rmtb3irvOzr1RXj2wSrz-28" target="Rmtb3irvOzr1RXj2wSrz-30">
          <mxGeometry relative="1" as="geometry" />
        </mxCell>
        <mxCell id="Rmtb3irvOzr1RXj2wSrz-28" value="FC" style="rounded=1;whiteSpace=wrap;html=1;fillColor=#fff2cc;strokeColor=#d6b656;" parent="1" vertex="1">
          <mxGeometry x="180" y="690" width="100" height="30" as="geometry" />
        </mxCell>
        <mxCell id="Rmtb3irvOzr1RXj2wSrz-30" value="$$X = (X^{t+1},...,X^{t+Q})$$" style="text;html=1;align=center;verticalAlign=middle;resizable=0;points=[];autosize=1;strokeColor=none;fillColor=none;" parent="1" vertex="1">
          <mxGeometry x="140" y="640" width="180" height="30" as="geometry" />
        </mxCell>
        <mxCell id="Rmtb3irvOzr1RXj2wSrz-32" value="" style="rounded=1;whiteSpace=wrap;html=1;fillColor=none;dashed=1;" parent="1" vertex="1">
          <mxGeometry x="140" y="730" width="170" height="270" as="geometry" />
        </mxCell>
        <mxCell id="Rmtb3irvOzr1RXj2wSrz-33" value="$$×L$$" style="text;html=1;align=center;verticalAlign=middle;resizable=0;points=[];autosize=1;strokeColor=none;fillColor=none;dashed=1;" parent="1" vertex="1">
          <mxGeometry x="260" y="850" width="60" height="30" as="geometry" />
        </mxCell>
        <mxCell id="Rmtb3irvOzr1RXj2wSrz-34" value="" style="rounded=1;whiteSpace=wrap;html=1;fillColor=none;strokeColor=#6c8ebf;dashed=1;" parent="1" vertex="1">
          <mxGeometry x="880" y="852.5" width="180" height="117.5" as="geometry" />
        </mxCell>
        <mxCell id="Rmtb3irvOzr1RXj2wSrz-35" value="" style="ellipse;whiteSpace=wrap;html=1;aspect=fixed;fillColor=#7EA6E0;strokeColor=#6c8ebf;" parent="1" vertex="1">
          <mxGeometry x="893" y="952.5" width="10" height="10" as="geometry" />
        </mxCell>
        <mxCell id="Rmtb3irvOzr1RXj2wSrz-36" value="" style="ellipse;whiteSpace=wrap;html=1;aspect=fixed;fillColor=#7EA6E0;strokeColor=#6c8ebf;" parent="1" vertex="1">
          <mxGeometry x="913" y="952.5" width="10" height="10" as="geometry" />
        </mxCell>
        <mxCell id="Rmtb3irvOzr1RXj2wSrz-43" value="" style="ellipse;whiteSpace=wrap;html=1;aspect=fixed;fillColor=#FFFFFF;strokeColor=#6c8ebf;" parent="1" vertex="1">
          <mxGeometry x="893" y="922.5" width="10" height="10" as="geometry" />
        </mxCell>
        <mxCell id="Rmtb3irvOzr1RXj2wSrz-44" value="" style="ellipse;whiteSpace=wrap;html=1;aspect=fixed;fillColor=#B3B3B3;strokeColor=#6c8ebf;" parent="1" vertex="1">
          <mxGeometry x="913" y="922.5" width="10" height="10" as="geometry" />
        </mxCell>
        <mxCell id="Rmtb3irvOzr1RXj2wSrz-45" value="" style="ellipse;whiteSpace=wrap;html=1;aspect=fixed;fillColor=#FFFFFF;strokeColor=#6c8ebf;" parent="1" vertex="1">
          <mxGeometry x="893" y="892.5" width="10" height="10" as="geometry" />
        </mxCell>
        <mxCell id="Rmtb3irvOzr1RXj2wSrz-46" value="" style="ellipse;whiteSpace=wrap;html=1;aspect=fixed;fillColor=#FFFFFF;strokeColor=#6c8ebf;" parent="1" vertex="1">
          <mxGeometry x="913" y="892.5" width="10" height="10" as="geometry" />
        </mxCell>
        <mxCell id="Rmtb3irvOzr1RXj2wSrz-47" value="" style="ellipse;whiteSpace=wrap;html=1;aspect=fixed;fillColor=#FFFFFF;strokeColor=#6c8ebf;" parent="1" vertex="1">
          <mxGeometry x="933" y="892.5" width="10" height="10" as="geometry" />
        </mxCell>
        <mxCell id="Rmtb3irvOzr1RXj2wSrz-48" value="" style="ellipse;whiteSpace=wrap;html=1;aspect=fixed;fillColor=#B3B3B3;strokeColor=#6c8ebf;" parent="1" vertex="1">
          <mxGeometry x="953" y="892.5" width="10" height="10" as="geometry" />
        </mxCell>
        <mxCell id="Rmtb3irvOzr1RXj2wSrz-49" value="" style="ellipse;whiteSpace=wrap;html=1;aspect=fixed;fillColor=#FFFFFF;strokeColor=#6c8ebf;" parent="1" vertex="1">
          <mxGeometry x="973" y="892.5" width="10" height="10" as="geometry" />
        </mxCell>
        <mxCell id="Rmtb3irvOzr1RXj2wSrz-50" value="" style="ellipse;whiteSpace=wrap;html=1;aspect=fixed;fillColor=#FFFFFF;strokeColor=#6c8ebf;" parent="1" vertex="1">
          <mxGeometry x="993" y="892.5" width="10" height="10" as="geometry" />
        </mxCell>
        <mxCell id="Rmtb3irvOzr1RXj2wSrz-51" value="" style="endArrow=blockThin;html=1;rounded=0;exitX=0.567;exitY=-0.044;exitDx=0;exitDy=0;exitPerimeter=0;endFill=1;entryX=0.34;entryY=1.045;entryDx=0;entryDy=0;entryPerimeter=0;" parent="1" source="Rmtb3irvOzr1RXj2wSrz-35" target="Rmtb3irvOzr1RXj2wSrz-44" edge="1">
          <mxGeometry width="50" height="50" relative="1" as="geometry">
            <mxPoint x="893" y="952.5" as="sourcePoint" />
            <mxPoint x="913" y="932.5" as="targetPoint" />
          </mxGeometry>
        </mxCell>
        <mxCell id="Rmtb3irvOzr1RXj2wSrz-52" value="" style="endArrow=blockThin;html=1;rounded=0;endFill=1;" parent="1" edge="1">
          <mxGeometry width="50" height="50" relative="1" as="geometry">
            <mxPoint x="918" y="952.5" as="sourcePoint" />
            <mxPoint x="917.86" y="932.5" as="targetPoint" />
          </mxGeometry>
        </mxCell>
        <mxCell id="Rmtb3irvOzr1RXj2wSrz-55" value="" style="ellipse;whiteSpace=wrap;html=1;aspect=fixed;fillColor=#7EA6E0;strokeColor=#6c8ebf;" parent="1" vertex="1">
          <mxGeometry x="933" y="952.5" width="10" height="10" as="geometry" />
        </mxCell>
        <mxCell id="Rmtb3irvOzr1RXj2wSrz-56" value="" style="ellipse;whiteSpace=wrap;html=1;aspect=fixed;fillColor=#7EA6E0;strokeColor=#6c8ebf;" parent="1" vertex="1">
          <mxGeometry x="953" y="952.5" width="10" height="10" as="geometry" />
        </mxCell>
        <mxCell id="Rmtb3irvOzr1RXj2wSrz-57" value="" style="ellipse;whiteSpace=wrap;html=1;aspect=fixed;fillColor=#FFFFFF;strokeColor=#6c8ebf;" parent="1" vertex="1">
          <mxGeometry x="933" y="922.5" width="10" height="10" as="geometry" />
        </mxCell>
        <mxCell id="Rmtb3irvOzr1RXj2wSrz-58" value="" style="ellipse;whiteSpace=wrap;html=1;aspect=fixed;fillColor=#B3B3B3;strokeColor=#6c8ebf;" parent="1" vertex="1">
          <mxGeometry x="953" y="922.5" width="10" height="10" as="geometry" />
        </mxCell>
        <mxCell id="Rmtb3irvOzr1RXj2wSrz-59" value="" style="endArrow=blockThin;html=1;rounded=0;exitX=0.567;exitY=-0.044;exitDx=0;exitDy=0;exitPerimeter=0;endFill=1;entryX=0.379;entryY=1.064;entryDx=0;entryDy=0;entryPerimeter=0;" parent="1" source="Rmtb3irvOzr1RXj2wSrz-55" target="Rmtb3irvOzr1RXj2wSrz-58" edge="1">
          <mxGeometry width="50" height="50" relative="1" as="geometry">
            <mxPoint x="933" y="952.5" as="sourcePoint" />
            <mxPoint x="953" y="932.5" as="targetPoint" />
          </mxGeometry>
        </mxCell>
        <mxCell id="Rmtb3irvOzr1RXj2wSrz-60" value="" style="endArrow=blockThin;html=1;rounded=0;endFill=1;" parent="1" edge="1">
          <mxGeometry width="50" height="50" relative="1" as="geometry">
            <mxPoint x="958" y="952.5" as="sourcePoint" />
            <mxPoint x="957.86" y="932.5" as="targetPoint" />
          </mxGeometry>
        </mxCell>
        <mxCell id="Rmtb3irvOzr1RXj2wSrz-61" value="" style="ellipse;whiteSpace=wrap;html=1;aspect=fixed;fillColor=#7EA6E0;strokeColor=#6c8ebf;" parent="1" vertex="1">
          <mxGeometry x="973" y="952.5" width="10" height="10" as="geometry" />
        </mxCell>
        <mxCell id="Rmtb3irvOzr1RXj2wSrz-62" value="" style="ellipse;whiteSpace=wrap;html=1;aspect=fixed;fillColor=#7EA6E0;strokeColor=#6c8ebf;" parent="1" vertex="1">
          <mxGeometry x="993" y="952.5" width="10" height="10" as="geometry" />
        </mxCell>
        <mxCell id="Rmtb3irvOzr1RXj2wSrz-63" value="" style="ellipse;whiteSpace=wrap;html=1;aspect=fixed;fillColor=#FFFFFF;strokeColor=#6c8ebf;" parent="1" vertex="1">
          <mxGeometry x="973" y="922.5" width="10" height="10" as="geometry" />
        </mxCell>
        <mxCell id="Rmtb3irvOzr1RXj2wSrz-64" value="" style="ellipse;whiteSpace=wrap;html=1;aspect=fixed;fillColor=#B3B3B3;strokeColor=#6c8ebf;" parent="1" vertex="1">
          <mxGeometry x="993" y="922.5" width="10" height="10" as="geometry" />
        </mxCell>
        <mxCell id="Rmtb3irvOzr1RXj2wSrz-65" value="" style="endArrow=blockThin;html=1;rounded=0;exitX=0.567;exitY=-0.044;exitDx=0;exitDy=0;exitPerimeter=0;endFill=1;entryX=0.379;entryY=1.025;entryDx=0;entryDy=0;entryPerimeter=0;" parent="1" source="Rmtb3irvOzr1RXj2wSrz-61" target="Rmtb3irvOzr1RXj2wSrz-64" edge="1">
          <mxGeometry width="50" height="50" relative="1" as="geometry">
            <mxPoint x="973" y="952.5" as="sourcePoint" />
            <mxPoint x="993" y="932.5" as="targetPoint" />
          </mxGeometry>
        </mxCell>
        <mxCell id="Rmtb3irvOzr1RXj2wSrz-66" value="" style="endArrow=blockThin;html=1;rounded=0;endFill=1;" parent="1" edge="1">
          <mxGeometry width="50" height="50" relative="1" as="geometry">
            <mxPoint x="998" y="952.5" as="sourcePoint" />
            <mxPoint x="997.86" y="932.5" as="targetPoint" />
          </mxGeometry>
        </mxCell>
        <mxCell id="Rmtb3irvOzr1RXj2wSrz-67" value="" style="ellipse;whiteSpace=wrap;html=1;aspect=fixed;fillColor=#7EA6E0;strokeColor=#6c8ebf;" parent="1" vertex="1">
          <mxGeometry x="1013" y="952.5" width="10" height="10" as="geometry" />
        </mxCell>
        <mxCell id="Rmtb3irvOzr1RXj2wSrz-68" value="" style="ellipse;whiteSpace=wrap;html=1;aspect=fixed;fillColor=#7EA6E0;strokeColor=#6c8ebf;" parent="1" vertex="1">
          <mxGeometry x="1033" y="952.5" width="10" height="10" as="geometry" />
        </mxCell>
        <mxCell id="Rmtb3irvOzr1RXj2wSrz-69" value="" style="ellipse;whiteSpace=wrap;html=1;aspect=fixed;fillColor=#FFFFFF;strokeColor=#6c8ebf;" parent="1" vertex="1">
          <mxGeometry x="1013" y="922.5" width="10" height="10" as="geometry" />
        </mxCell>
        <mxCell id="Rmtb3irvOzr1RXj2wSrz-70" value="" style="ellipse;whiteSpace=wrap;html=1;aspect=fixed;fillColor=#B3B3B3;strokeColor=#6c8ebf;" parent="1" vertex="1">
          <mxGeometry x="1033" y="922.5" width="10" height="10" as="geometry" />
        </mxCell>
        <mxCell id="Rmtb3irvOzr1RXj2wSrz-71" value="" style="endArrow=blockThin;html=1;rounded=0;exitX=0.567;exitY=-0.044;exitDx=0;exitDy=0;exitPerimeter=0;endFill=1;entryX=0.34;entryY=1.006;entryDx=0;entryDy=0;entryPerimeter=0;" parent="1" source="Rmtb3irvOzr1RXj2wSrz-67" target="Rmtb3irvOzr1RXj2wSrz-70" edge="1">
          <mxGeometry width="50" height="50" relative="1" as="geometry">
            <mxPoint x="1013" y="952.5" as="sourcePoint" />
            <mxPoint x="1033" y="932.5" as="targetPoint" />
          </mxGeometry>
        </mxCell>
        <mxCell id="Rmtb3irvOzr1RXj2wSrz-72" value="" style="endArrow=blockThin;html=1;rounded=0;endFill=1;" parent="1" edge="1">
          <mxGeometry width="50" height="50" relative="1" as="geometry">
            <mxPoint x="1038" y="952.5" as="sourcePoint" />
            <mxPoint x="1037.8600000000001" y="932.5" as="targetPoint" />
          </mxGeometry>
        </mxCell>
        <mxCell id="Rmtb3irvOzr1RXj2wSrz-79" value="" style="ellipse;whiteSpace=wrap;html=1;aspect=fixed;fillColor=#FFFFFF;strokeColor=#6c8ebf;" parent="1" vertex="1">
          <mxGeometry x="1013" y="892.5" width="10" height="10" as="geometry" />
        </mxCell>
        <mxCell id="Rmtb3irvOzr1RXj2wSrz-80" value="" style="ellipse;whiteSpace=wrap;html=1;aspect=fixed;fillColor=#B3B3B3;strokeColor=#6c8ebf;" parent="1" vertex="1">
          <mxGeometry x="1033" y="892.5" width="10" height="10" as="geometry" />
        </mxCell>
        <mxCell id="Rmtb3irvOzr1RXj2wSrz-83" value="" style="endArrow=blockThin;html=1;rounded=0;exitX=0.567;exitY=-0.044;exitDx=0;exitDy=0;exitPerimeter=0;endFill=1;entryX=0.5;entryY=1;entryDx=0;entryDy=0;" parent="1" target="Rmtb3irvOzr1RXj2wSrz-48" edge="1">
          <mxGeometry width="50" height="50" relative="1" as="geometry">
            <mxPoint x="898.67" y="922.5" as="sourcePoint" />
            <mxPoint x="913" y="902.94" as="targetPoint" />
          </mxGeometry>
        </mxCell>
        <mxCell id="Rmtb3irvOzr1RXj2wSrz-84" value="" style="endArrow=blockThin;html=1;rounded=0;endFill=1;" parent="1" edge="1">
          <mxGeometry width="50" height="50" relative="1" as="geometry">
            <mxPoint x="958" y="922.5" as="sourcePoint" />
            <mxPoint x="957.86" y="902.5" as="targetPoint" />
          </mxGeometry>
        </mxCell>
        <mxCell id="Rmtb3irvOzr1RXj2wSrz-85" value="" style="endArrow=blockThin;html=1;rounded=0;exitX=0.567;exitY=-0.044;exitDx=0;exitDy=0;exitPerimeter=0;endFill=1;entryX=0.5;entryY=1;entryDx=0;entryDy=0;" parent="1" edge="1">
          <mxGeometry width="50" height="50" relative="1" as="geometry">
            <mxPoint x="978.3399999999999" y="922.5" as="sourcePoint" />
            <mxPoint x="1037.67" y="902.5" as="targetPoint" />
          </mxGeometry>
        </mxCell>
        <mxCell id="Rmtb3irvOzr1RXj2wSrz-86" value="" style="endArrow=blockThin;html=1;rounded=0;endFill=1;" parent="1" edge="1">
          <mxGeometry width="50" height="50" relative="1" as="geometry">
            <mxPoint x="1038" y="922.5" as="sourcePoint" />
            <mxPoint x="1037.8600000000001" y="902.5" as="targetPoint" />
          </mxGeometry>
        </mxCell>
        <mxCell id="Rmtb3irvOzr1RXj2wSrz-87" value="" style="ellipse;whiteSpace=wrap;html=1;aspect=fixed;fillColor=#B3B3B3;strokeColor=#6c8ebf;" parent="1" vertex="1">
          <mxGeometry x="1033" y="892.5" width="10" height="10" as="geometry" />
        </mxCell>
        <mxCell id="Rmtb3irvOzr1RXj2wSrz-88" value="" style="ellipse;whiteSpace=wrap;html=1;aspect=fixed;fillColor=#B3B3B3;strokeColor=#6c8ebf;" parent="1" vertex="1">
          <mxGeometry x="1033" y="862.5" width="10" height="10" as="geometry" />
        </mxCell>
        <mxCell id="Rmtb3irvOzr1RXj2wSrz-89" value="" style="endArrow=blockThin;html=1;rounded=0;exitX=0.5;exitY=0;exitDx=0;exitDy=0;endFill=1;entryX=0.21;entryY=0.966;entryDx=0;entryDy=0;entryPerimeter=0;" parent="1" source="Rmtb3irvOzr1RXj2wSrz-48" target="Rmtb3irvOzr1RXj2wSrz-88" edge="1">
          <mxGeometry width="50" height="50" relative="1" as="geometry">
            <mxPoint x="953.67" y="892.5" as="sourcePoint" />
            <mxPoint x="1013" y="872.5" as="targetPoint" />
          </mxGeometry>
        </mxCell>
        <mxCell id="Rmtb3irvOzr1RXj2wSrz-90" value="" style="endArrow=blockThin;html=1;rounded=0;endFill=1;" parent="1" edge="1">
          <mxGeometry width="50" height="50" relative="1" as="geometry">
            <mxPoint x="1037.94" y="892.5" as="sourcePoint" />
            <mxPoint x="1037.8000000000002" y="872.5" as="targetPoint" />
          </mxGeometry>
        </mxCell>
        <mxCell id="Rmtb3irvOzr1RXj2wSrz-91" value="&lt;span style=&quot;color: rgb(0, 0, 0); font-family: Helvetica; font-style: normal; font-variant-ligatures: normal; font-variant-caps: normal; font-weight: 400; letter-spacing: normal; orphans: 2; text-align: center; text-indent: 0px; text-transform: none; widows: 2; word-spacing: 0px; -webkit-text-stroke-width: 0px; background-color: rgb(248, 249, 250); text-decoration-thickness: initial; text-decoration-style: initial; text-decoration-color: initial; float: none; display: inline !important;&quot;&gt;&lt;font style=&quot;font-size: 11px;&quot;&gt;Temporal Embeding&lt;/font&gt;&lt;/span&gt;" style="text;whiteSpace=wrap;html=1;" parent="1" vertex="1">
          <mxGeometry x="413" y="575" width="110" height="20" as="geometry" />
        </mxCell>
        <mxCell id="hHXNNeR1StJMd4GyVmQN-33" value="&lt;b&gt;Dilated&lt;br&gt;Conv&lt;/b&gt;" style="rounded=1;whiteSpace=wrap;html=1;fontFamily=Helvetica;fontSize=10;strokeColor=#6c8ebf;fillColor=#dae8fc;" vertex="1" parent="1">
          <mxGeometry x="503" y="760" width="80" height="40" as="geometry" />
        </mxCell>
        <mxCell id="hHXNNeR1StJMd4GyVmQN-34" style="edgeStyle=orthogonalEdgeStyle;rounded=0;orthogonalLoop=1;jettySize=auto;html=1;entryX=1;entryY=0.5;entryDx=0;entryDy=0;fontFamily=Helvetica;fontSize=19;fontColor=default;strokeWidth=2;" edge="1" parent="1" source="hHXNNeR1StJMd4GyVmQN-35" target="hHXNNeR1StJMd4GyVmQN-39">
          <mxGeometry relative="1" as="geometry">
            <Array as="points">
              <mxPoint x="663" y="730" />
            </Array>
          </mxGeometry>
        </mxCell>
        <mxCell id="hHXNNeR1StJMd4GyVmQN-35" value="&lt;b&gt;Dilated&lt;br&gt;Conv&lt;/b&gt;" style="rounded=1;whiteSpace=wrap;html=1;fontFamily=Helvetica;fontSize=10;strokeColor=#6c8ebf;fillColor=#dae8fc;" vertex="1" parent="1">
          <mxGeometry x="623" y="760" width="80" height="40" as="geometry" />
        </mxCell>
        <mxCell id="hHXNNeR1StJMd4GyVmQN-36" value="" style="endArrow=classic;startArrow=classic;html=1;rounded=0;fontFamily=Helvetica;fontSize=10;fontColor=default;exitX=0.5;exitY=1;exitDx=0;exitDy=0;entryX=0.5;entryY=1;entryDx=0;entryDy=0;strokeWidth=2;" edge="1" parent="1" source="hHXNNeR1StJMd4GyVmQN-33" target="hHXNNeR1StJMd4GyVmQN-35">
          <mxGeometry width="50" height="50" relative="1" as="geometry">
            <mxPoint x="543" y="850" as="sourcePoint" />
            <mxPoint x="703" y="840" as="targetPoint" />
            <Array as="points">
              <mxPoint x="543" y="830" />
              <mxPoint x="553" y="830" />
              <mxPoint x="663" y="830" />
            </Array>
          </mxGeometry>
        </mxCell>
        <mxCell id="hHXNNeR1StJMd4GyVmQN-37" value="" style="endArrow=none;html=1;rounded=0;fontFamily=Helvetica;fontSize=10;fontColor=default;strokeWidth=2;" edge="1" parent="1">
          <mxGeometry width="50" height="50" relative="1" as="geometry">
            <mxPoint x="603" y="870" as="sourcePoint" />
            <mxPoint x="603" y="830" as="targetPoint" />
          </mxGeometry>
        </mxCell>
        <mxCell id="hHXNNeR1StJMd4GyVmQN-38" value="" style="endArrow=classic;html=1;rounded=0;fontFamily=Helvetica;fontSize=10;fontColor=default;exitX=0.5;exitY=0;exitDx=0;exitDy=0;strokeWidth=2;" edge="1" parent="1" source="hHXNNeR1StJMd4GyVmQN-33" target="hHXNNeR1StJMd4GyVmQN-39">
          <mxGeometry width="50" height="50" relative="1" as="geometry">
            <mxPoint x="543" y="755" as="sourcePoint" />
            <mxPoint x="593" y="730" as="targetPoint" />
            <Array as="points">
              <mxPoint x="543" y="730" />
            </Array>
          </mxGeometry>
        </mxCell>
        <mxCell id="hHXNNeR1StJMd4GyVmQN-39" value="&lt;font style=&quot;font-size: 19px;&quot;&gt;×&lt;/font&gt;" style="ellipse;whiteSpace=wrap;html=1;aspect=fixed;fontFamily=Helvetica;fontSize=10;strokeColor=#d6b656;fillColor=#fff2cc;" vertex="1" parent="1">
          <mxGeometry x="593" y="717.5" width="25" height="25" as="geometry" />
        </mxCell>
        <mxCell id="hHXNNeR1StJMd4GyVmQN-41" value="&lt;span style=&quot;font-size: 11px;&quot;&gt;$$sigmoid$$&lt;/span&gt;" style="text;html=1;align=center;verticalAlign=middle;resizable=0;points=[];autosize=1;strokeColor=none;fillColor=none;fontSize=19;fontFamily=Helvetica;fontColor=default;strokeWidth=2;" vertex="1" parent="1">
          <mxGeometry x="643" y="717.5" width="90" height="40" as="geometry" />
        </mxCell>
        <mxCell id="hHXNNeR1StJMd4GyVmQN-42" value="" style="endArrow=classic;html=1;rounded=0;fontFamily=Helvetica;fontSize=19;fontColor=default;strokeWidth=2;" edge="1" parent="1">
          <mxGeometry width="50" height="50" relative="1" as="geometry">
            <mxPoint x="602.8" y="717.5" as="sourcePoint" />
            <mxPoint x="602.8" y="680" as="targetPoint" />
          </mxGeometry>
        </mxCell>
        <mxCell id="hHXNNeR1StJMd4GyVmQN-43" value="input" style="text;html=1;align=center;verticalAlign=middle;resizable=0;points=[];autosize=1;strokeColor=none;fillColor=none;fontSize=17;fontFamily=Helvetica;fontColor=default;" vertex="1" parent="1">
          <mxGeometry x="563" y="1020" width="60" height="30" as="geometry" />
        </mxCell>
        <mxCell id="hHXNNeR1StJMd4GyVmQN-44" value="&lt;span style=&quot;color: rgb(0, 0, 0); font-family: Helvetica; font-size: 11px; font-style: normal; font-variant-ligatures: normal; font-variant-caps: normal; font-weight: 400; letter-spacing: normal; orphans: 2; text-align: center; text-indent: 0px; text-transform: none; widows: 2; word-spacing: 0px; -webkit-text-stroke-width: 0px; background-color: rgb(248, 249, 250); text-decoration-thickness: initial; text-decoration-style: initial; text-decoration-color: initial; float: none; display: inline !important;&quot;&gt;$$tanh$$&lt;/span&gt;" style="text;whiteSpace=wrap;html=1;fontSize=20;" vertex="1" parent="1">
          <mxGeometry x="503" y="717.5" width="100" height="50" as="geometry" />
        </mxCell>
        <mxCell id="hHXNNeR1StJMd4GyVmQN-45" value="&lt;span style=&quot;color: rgb(0, 0, 0); font-family: Helvetica; font-size: 10px; font-style: normal; font-variant-ligatures: normal; font-variant-caps: normal; letter-spacing: normal; orphans: 2; text-align: center; text-indent: 0px; text-transform: none; widows: 2; word-spacing: 0px; -webkit-text-stroke-width: 0px; background-color: rgb(248, 249, 250); text-decoration-thickness: initial; text-decoration-style: initial; text-decoration-color: initial;&quot;&gt;Dilated Conv&lt;/span&gt;" style="text;whiteSpace=wrap;html=1;fontSize=20;" vertex="1" parent="1">
          <mxGeometry x="893" y="850" width="87" height="40" as="geometry" />
        </mxCell>
        <mxCell id="hHXNNeR1StJMd4GyVmQN-46" value="" style="rounded=0;whiteSpace=wrap;html=1;fontFamily=Helvetica;fontSize=17;fontColor=default;strokeColor=default;fillColor=none;strokeWidth=2;dashed=1;" vertex="1" parent="1">
          <mxGeometry x="482" y="670" width="247" height="192.5" as="geometry" />
        </mxCell>
        <mxCell id="hHXNNeR1StJMd4GyVmQN-48" value="" style="endArrow=none;html=1;rounded=0;fontFamily=Helvetica;fontSize=17;fontColor=default;strokeWidth=1;dashed=1;dashPattern=1 2;entryX=0.997;entryY=0.961;entryDx=0;entryDy=0;entryPerimeter=0;exitX=0.038;exitY=0.002;exitDx=0;exitDy=0;exitPerimeter=0;" edge="1" parent="1" target="hHXNNeR1StJMd4GyVmQN-46">
          <mxGeometry width="50" height="50" relative="1" as="geometry">
            <mxPoint x="493" y="670.44" as="sourcePoint" />
            <mxPoint x="734.75" y="950" as="targetPoint" />
            <Array as="points">
              <mxPoint x="493.5" y="659.86" />
              <mxPoint x="740" y="660" />
              <mxPoint x="740" y="855" />
            </Array>
          </mxGeometry>
        </mxCell>
        <mxCell id="hHXNNeR1StJMd4GyVmQN-49" value="" style="endArrow=none;html=1;rounded=0;fontFamily=Helvetica;fontSize=17;fontColor=default;strokeWidth=1;dashed=1;dashPattern=1 2;entryX=0.997;entryY=0.961;entryDx=0;entryDy=0;entryPerimeter=0;exitX=0.038;exitY=0.002;exitDx=0;exitDy=0;exitPerimeter=0;" edge="1" parent="1">
          <mxGeometry width="50" height="50" relative="1" as="geometry">
            <mxPoint x="503" y="663.0100000000001" as="sourcePoint" />
            <mxPoint x="739.259" y="847.5625000000001" as="targetPoint" />
            <Array as="points">
              <mxPoint x="503.5" y="652.4300000000001" />
              <mxPoint x="750" y="652.57" />
              <mxPoint x="750" y="847.57" />
            </Array>
          </mxGeometry>
        </mxCell>
        <mxCell id="hHXNNeR1StJMd4GyVmQN-50" value="" style="endArrow=none;html=1;rounded=0;fontFamily=Helvetica;fontSize=17;fontColor=default;strokeWidth=1;dashed=1;dashPattern=1 2;entryX=0.997;entryY=0.961;entryDx=0;entryDy=0;entryPerimeter=0;exitX=0.038;exitY=0.002;exitDx=0;exitDy=0;exitPerimeter=0;" edge="1" parent="1">
          <mxGeometry width="50" height="50" relative="1" as="geometry">
            <mxPoint x="513" y="650.5100000000001" as="sourcePoint" />
            <mxPoint x="749.259" y="835.0625000000001" as="targetPoint" />
            <Array as="points">
              <mxPoint x="513.5" y="639.9300000000001" />
              <mxPoint x="760" y="640.07" />
              <mxPoint x="760" y="835.07" />
            </Array>
          </mxGeometry>
        </mxCell>
        <mxCell id="hHXNNeR1StJMd4GyVmQN-51" value="" style="endArrow=classic;html=1;rounded=0;fontFamily=Helvetica;fontSize=17;fontColor=default;strokeWidth=2;" edge="1" parent="1">
          <mxGeometry width="50" height="50" relative="1" as="geometry">
            <mxPoint x="730" y="814.66" as="sourcePoint" />
            <mxPoint x="800" y="815" as="targetPoint" />
          </mxGeometry>
        </mxCell>
        <mxCell id="hHXNNeR1StJMd4GyVmQN-52" value="" style="endArrow=classic;html=1;rounded=0;fontFamily=Helvetica;fontSize=17;fontColor=default;strokeWidth=2;" edge="1" parent="1">
          <mxGeometry width="50" height="50" relative="1" as="geometry">
            <mxPoint x="740" y="800" as="sourcePoint" />
            <mxPoint x="800" y="800" as="targetPoint" />
          </mxGeometry>
        </mxCell>
        <mxCell id="hHXNNeR1StJMd4GyVmQN-53" value="" style="endArrow=classic;html=1;rounded=0;fontFamily=Helvetica;fontSize=17;fontColor=default;strokeWidth=2;" edge="1" parent="1">
          <mxGeometry width="50" height="50" relative="1" as="geometry">
            <mxPoint x="750" y="782.3199999999999" as="sourcePoint" />
            <mxPoint x="800" y="782.16" as="targetPoint" />
          </mxGeometry>
        </mxCell>
        <mxCell id="hHXNNeR1StJMd4GyVmQN-54" value="" style="endArrow=classic;html=1;rounded=0;fontFamily=Helvetica;fontSize=17;fontColor=default;strokeWidth=2;" edge="1" parent="1">
          <mxGeometry width="50" height="50" relative="1" as="geometry">
            <mxPoint x="760" y="765.91" as="sourcePoint" />
            <mxPoint x="800" y="765.91" as="targetPoint" />
          </mxGeometry>
        </mxCell>
        <mxCell id="hHXNNeR1StJMd4GyVmQN-59" value="" style="endArrow=none;html=1;rounded=0;fontFamily=Helvetica;fontSize=17;fontColor=default;strokeWidth=2;" edge="1" parent="1">
          <mxGeometry width="50" height="50" relative="1" as="geometry">
            <mxPoint x="800" y="815" as="sourcePoint" />
            <mxPoint x="800" y="760" as="targetPoint" />
          </mxGeometry>
        </mxCell>
        <mxCell id="hHXNNeR1StJMd4GyVmQN-61" value="+" style="ellipse;whiteSpace=wrap;html=1;aspect=fixed;fontFamily=Helvetica;fontSize=19;strokeColor=#d6b656;fillColor=#fff2cc;" vertex="1" parent="1">
          <mxGeometry x="800" y="775" width="20" height="20" as="geometry" />
        </mxCell>
        <mxCell id="hHXNNeR1StJMd4GyVmQN-64" value="" style="endArrow=classic;html=1;rounded=0;fontSize=20;exitX=0.5;exitY=0;exitDx=0;exitDy=0;entryX=0.5;entryY=1;entryDx=0;entryDy=0;" edge="1" parent="1" source="hHXNNeR1StJMd4GyVmQN-61" target="hHXNNeR1StJMd4GyVmQN-65">
          <mxGeometry width="50" height="50" relative="1" as="geometry">
            <mxPoint x="840" y="780" as="sourcePoint" />
            <mxPoint x="810" y="740" as="targetPoint" />
          </mxGeometry>
        </mxCell>
        <mxCell id="hHXNNeR1StJMd4GyVmQN-65" value="FC" style="rounded=1;whiteSpace=wrap;html=1;fillColor=#fff2cc;strokeColor=#d6b656;" vertex="1" parent="1">
          <mxGeometry x="780" y="717.5" width="60" height="20" as="geometry" />
        </mxCell>
        <mxCell id="hHXNNeR1StJMd4GyVmQN-67" value="FC" style="rounded=1;whiteSpace=wrap;html=1;fillColor=#fff2cc;strokeColor=#d6b656;" vertex="1" parent="1">
          <mxGeometry x="780" y="680" width="60" height="20" as="geometry" />
        </mxCell>
        <mxCell id="hHXNNeR1StJMd4GyVmQN-68" value="" style="endArrow=classic;html=1;rounded=0;fontSize=20;exitX=0.5;exitY=0;exitDx=0;exitDy=0;entryX=0.5;entryY=1;entryDx=0;entryDy=0;" edge="1" parent="1" source="hHXNNeR1StJMd4GyVmQN-65" target="hHXNNeR1StJMd4GyVmQN-67">
          <mxGeometry width="50" height="50" relative="1" as="geometry">
            <mxPoint x="870" y="740" as="sourcePoint" />
            <mxPoint x="920" y="690" as="targetPoint" />
          </mxGeometry>
        </mxCell>
        <mxCell id="hHXNNeR1StJMd4GyVmQN-69" value="" style="endArrow=classic;html=1;rounded=0;fontSize=20;exitX=0.5;exitY=0;exitDx=0;exitDy=0;entryX=0.5;entryY=1;entryDx=0;entryDy=0;" edge="1" parent="1">
          <mxGeometry width="50" height="50" relative="1" as="geometry">
            <mxPoint x="809.83" y="680" as="sourcePoint" />
            <mxPoint x="809.83" y="662.5" as="targetPoint" />
          </mxGeometry>
        </mxCell>
      </root>
    </mxGraphModel>
  </diagram>
</mxfile>
